<mxfile host="app.diagrams.net" modified="2024-03-10T14:51:35.669Z" agent="Mozilla/5.0 (Windows NT 10.0; Win64; x64) AppleWebKit/537.36 (KHTML, like Gecko) Chrome/122.0.0.0 Safari/537.36" version="24.0.4" etag="KHLKFLHLj5jFtKzxonOT" type="github">
  <diagram name="第 1 页" id="bQO6H_U9PMVd21hEVMdh">
    <mxGraphModel>
      <root>
        <mxCell id="0" />
        <mxCell id="1" parent="0" />
      </root>
    </mxGraphModel>
  </diagram>
</mxfile>
